<?xml version="1.0" standalone="no"?>
<!DOCTYPE svg PUBLIC "-//W3C//DTD SVG 20010904//EN"
 "http://www.w3.org/TR/2001/REC-SVG-20010904/DTD/svg10.dtd">
<svg version="1.0" xmlns="http://www.w3.org/2000/svg"
 width="320.000000pt" height="320.000000pt" viewBox="0 0 320.000000 320.000000"
 preserveAspectRatio="xMidYMid meet">
<metadata>
Created by potrace 1.11, written by Peter Selinger 2001-2013
</metadata>
<g transform="translate(0.000000,320.000000) scale(0.100000,-0.100000)"
fill="#000000" stroke="none">
<path d="M1404 3161 c-196 -36 -381 -113 -502 -211 -70 -58 -149 -163 -182
-244 -19 -47 -30 -60 -74 -84 -111 -63 -169 -159 -173 -287 -1 -44 -9 -120
-18 -169 -11 -57 -14 -113 -11 -155 3 -36 9 -125 12 -198 6 -129 5 -133 -19
-165 -36 -49 -47 -92 -47 -183 0 -170 48 -312 152 -450 36 -47 67 -77 95 -90
39 -19 42 -23 53 -82 26 -133 102 -254 269 -426 166 -171 331 -310 420 -355
l75 -37 156 0 156 0 75 37 c89 45 254 184 420 355 167 172 244 294 269 426 11
58 14 63 49 78 48 20 158 165 195 255 79 193 72 437 -14 497 -21 14 -21 15 -4
163 10 82 19 194 20 249 2 55 6 120 10 145 8 58 -16 149 -67 259 -27 59 -36
87 -28 92 21 12 -42 108 -131 200 -122 125 -259 211 -440 275 -60 21 -62 23
-30 23 43 1 80 11 80 21 0 4 -24 15 -52 24 -116 36 -204 47 -408 51 -169 4
-223 1 -306 -14z m-206 -757 c32 -22 172 -72 256 -91 148 -33 449 -10 464 36
3 10 -2 12 -20 8 -61 -16 -222 -29 -266 -21 l-47 7 90 13 c227 31 353 38 449
26 104 -13 205 -46 265 -85 38 -25 40 -29 45 -94 18 -192 28 -260 52 -330 25
-76 26 -78 18 -285 -5 -153 -4 -208 5 -208 15 0 14 -58 -4 -236 -31 -298 -53
-380 -136 -499 -55 -80 -334 -363 -444 -450 -120 -95 -136 -100 -315 -100
-140 0 -159 2 -200 22 -72 36 -173 122 -347 295 -166 164 -247 267 -281 354
-49 125 -82 442 -82 787 l0 250 31 89 c25 75 32 113 40 241 5 87 15 169 24
192 l15 40 117 0 c106 0 124 3 178 26 74 33 66 32 93 13z m-630 -801 c3 -31 3
-32 -27 -20 -33 12 -50 5 -33 -16 8 -9 6 -26 -5 -62 -14 -41 -15 -60 -5 -127
15 -105 71 -231 123 -279 31 -30 39 -44 39 -73 0 -20 -4 -36 -9 -36 -14 0
-113 141 -142 205 -28 60 -59 204 -59 274 0 65 28 139 58 156 39 21 57 15 60
-22z m2136 26 c14 -7 33 -28 42 -48 34 -70 16 -271 -36 -387 -21 -48 -130
-204 -142 -204 -5 0 -8 17 -8 38 0 31 6 43 30 60 35 26 90 131 116 218 21 73
23 183 4 218 -10 20 -11 29 -2 38 35 35 -14 38 -55 4 l-28 -24 4 42 c5 56 25
68 75 45z"/>
<path d="M1001 1899 c-63 -25 -166 -138 -145 -159 5 -5 35 4 69 20 116 56 258
62 434 19 69 -17 85 -19 92 -7 17 25 4 43 -51 70 -114 57 -324 87 -399 57z"/>
<path d="M1935 1886 c-121 -34 -175 -63 -175 -92 0 -34 21 -39 77 -20 142 48
344 42 458 -13 32 -16 63 -27 67 -25 17 11 -39 88 -91 128 l-54 41 -101 2
c-80 2 -118 -2 -181 -21z"/>
<path d="M997 1645 c-63 -22 -117 -84 -117 -135 0 -29 84 -111 145 -140 43
-22 64 -25 150 -25 89 0 106 3 150 27 28 14 70 44 94 65 l45 39 -32 68 -32 68
25 -6 c34 -9 23 19 -16 39 -39 20 -356 20 -412 0z m188 -60 c0 -26 -49 -34
-59 -10 -9 25 3 37 32 33 19 -2 27 -9 27 -23z m-122 -25 c-14 -106 83 -174
177 -125 50 26 75 99 50 145 -10 18 -8 19 22 13 43 -8 61 -24 84 -75 l18 -41
-34 -29 c-126 -105 -295 -104 -402 3 -48 48 -48 49 -34 77 18 35 37 51 73 62
49 15 51 13 46 -30z"/>
<path d="M1803 1640 c-39 -24 -44 -43 -8 -34 l25 6 -30 -57 c-16 -31 -30 -65
-30 -74 0 -24 114 -107 173 -127 70 -23 197 -16 260 15 56 27 147 114 147 139
0 26 -42 93 -71 114 -40 30 -92 38 -269 38 -147 0 -169 -2 -197 -20z m119 -95
c-4 -52 -3 -56 31 -90 29 -29 42 -35 79 -35 61 0 104 29 119 80 10 32 10 49 1
72 -10 28 -10 30 11 24 12 -3 30 -6 40 -6 24 0 77 -56 77 -81 0 -31 -81 -104
-135 -122 -99 -34 -218 -12 -298 54 -32 27 -37 36 -32 58 10 42 52 89 83 94
15 2 27 5 28 6 0 0 -1 -24 -4 -54z m128 40 c0 -21 -32 -35 -53 -24 -30 17 -20
39 18 39 24 0 35 -5 35 -15z"/>
<path d="M1731 1316 c-1 -91 3 -167 8 -170 10 -7 31 123 31 195 0 57 -18 139
-31 139 -4 0 -8 -74 -8 -164z"/>
<path d="M1406 1044 c-23 -23 -30 -60 -17 -93 9 -21 33 -38 100 -69 92 -44
142 -52 176 -29 11 8 42 22 68 32 75 28 97 50 97 95 0 22 -8 47 -19 61 -26 32
-32 23 -18 -28 14 -54 0 -74 -48 -66 -27 4 -41 0 -65 -21 -43 -35 -97 -35
-139 0 -23 19 -40 25 -67 22 -49 -4 -62 16 -48 72 12 42 5 50 -20 24z"/>
<path d="M1185 680 c-25 -28 -13 -46 37 -53 23 -3 77 -13 118 -23 111 -26 413
-26 530 0 47 11 96 19 110 19 54 -2 76 29 42 60 -23 21 -48 22 -59 3 -21 -35
-288 -67 -457 -55 -120 9 -248 36 -259 55 -11 20 -41 17 -62 -6z"/>
<path d="M1453 495 c8 -24 56 -35 155 -35 102 0 142 9 142 33 0 9 -39 12 -150
12 -95 0 -149 -4 -147 -10z"/>
</g>
</svg>
